<svg xmlns="http://www.w3.org/2000/svg" width="400" height="300" viewBox="0 0 400 300">
  <rect width="400" height="300" fill="#1a1a2e"/>
  <rect x="20" y="15" width="360" height="30" rx="15" fill="#16213e"/>
  <text x="200" y="35" text-anchor="middle" font-family="Arial" font-size="12" fill="#e0e0e0">Section Tabs</text>
  <rect x="20" y="55" width="175" height="100" rx="12" fill="#0f3460"/>
  <rect x="20" y="55" width="175" height="60" rx="12" fill="#533483" opacity="0.6"/>
  <text x="107" y="90" text-anchor="middle" font-family="Arial" font-size="13" font-weight="bold" fill="#fff">Starters</text>
  <rect x="205" y="55" width="175" height="100" rx="12" fill="#0f3460"/>
  <rect x="205" y="55" width="175" height="60" rx="12" fill="#e94560" opacity="0.4"/>
  <text x="292" y="90" text-anchor="middle" font-family="Arial" font-size="13" font-weight="bold" fill="#fff">Mains</text>
  <rect x="20" y="165" width="175" height="120" rx="12" fill="#16213e"/>
  <rect x="20" y="165" width="175" height="65" rx="12" fill="#2a2a4a"/>
  <text x="107" y="200" text-anchor="middle" font-family="Arial" font-size="10" fill="#aaa">🍽️ Image</text>
  <text x="32" y="248" font-family="Arial" font-size="11" font-weight="bold" fill="#fff">Dish Name</text>
  <text x="32" y="262" font-family="Arial" font-size="9" fill="#aaa">Description...</text>
  <text x="32" y="278" font-family="Arial" font-size="11" fill="#e94560">$14.99</text>
  <rect x="205" y="165" width="175" height="120" rx="12" fill="#16213e"/>
  <rect x="205" y="165" width="175" height="65" rx="12" fill="#2a2a4a"/>
  <text x="292" y="200" text-anchor="middle" font-family="Arial" font-size="10" fill="#aaa">🍽️ Image</text>
  <text x="217" y="248" font-family="Arial" font-size="11" font-weight="bold" fill="#fff">Dish Name</text>
  <text x="217" y="262" font-family="Arial" font-size="9" fill="#aaa">Description...</text>
  <text x="217" y="278" font-family="Arial" font-size="11" fill="#e94560">$18.50</text>
</svg>
